<?xml version="1.0" encoding="UTF-8"?>
<svg width="640px" height="161px" viewBox="0 0 640 161" version="1.1" xmlns="http://www.w3.org/2000/svg" xmlns:xlink="http://www.w3.org/1999/xlink">
    <!-- Generator: Sketch 44.1 (41455) - http://www.bohemiancoding.com/sketch -->
    <title>Twinleaf-Logo-Black</title>
    <desc>Created with Sketch.</desc>
    <defs></defs>
    <g id="Page-1" stroke="none" stroke-width="1" fill="none" fill-rule="evenodd">
        <g id="Twinleaf-Logo-Black" fill="#000000">
            <g id="Twinleaf-Group" transform="translate(3.000000, 3.000000)">
                <path d="M41.0718423,37.9653432 L3.83044402,37.9653432 C0.473312628,37.9653432 -0.977650942,36.730723 0.700914756,32.2131353 C2.35103019,26.8818206 4.8546536,24.4125801 6.93152302,22.1397565 C10.0610523,22.981543 15.4666028,23.1779599 36.9181035,23.1779599 L109.779235,23.1779599 C108.954177,33.4477555 103.94693,37.1235567 99.9923433,37.9653432 L66.0511759,37.9653432 L66.0511759,125.819797 C66.0511759,139.989871 66.4779299,146.780282 66.6770818,150.876976 C61.0723793,151.91518 53.1632054,152.53249 45.4531833,152.53249 C42.323654,152.53249 41.0718423,151.91518 41.0718423,148.828629 L41.0718423,37.9653432 Z" id="Shape"></path>
                <path d="M105.909999,58.476875 C108.21447,58.476875 109.466282,59.9359717 110.490491,63.2189391 C115.298586,79.2128832 119.651477,97.0868172 127.361499,126.044274 C136.721637,95.03847 139.851166,85.1895676 144.004905,70.4021842 C144.004905,68.7466707 142.980695,65.8845965 142.753093,64.4535594 C145.683471,63.415356 155.868666,60.7496986 159.823253,60.7496986 C162.952782,60.7496986 163.77784,62.9944627 164.8305,67.7365268 C168.785087,82.1030169 175.015695,105.083789 180.022942,124.809654 C188.35887,99.5560577 195.84129,74.9197719 200.421783,58.476875 C205.827333,58.7013514 211.261334,59.0941851 215.614225,60.9461155 C218.117848,61.9843189 218.743754,64.8463931 216.040979,72.0576977 C207.705051,96.4695071 198.970819,119.478339 189.809833,145.124768 C188.35887,149.221463 187.533812,150.876976 183.550775,151.91518 C178.970282,153.1498 173.166428,153.739051 167.732427,153.739051 C162.526028,132.610209 157.945535,117.822825 151.914079,94.6175767 C147.561188,108.394816 140.903826,128.289038 135.469825,145.349245 C134.018862,149.445939 132.76705,151.073393 129.637521,151.91518 C125.057028,153.1498 119.253173,153.739051 114.445078,153.739051 C109.665434,137.52063 102.80892,115.970895 95.2980494,92.9901227 C90.7175566,79.0164663 87.5880273,70.4021842 84.885252,63.6117728 C89.266593,61.787902 100.305296,58.476875 105.710847,58.476875 L105.909999,58.476875 Z" id="Shape"></path>
                <path d="M255.245445,146.359389 C255.245445,150.063249 253.794482,151.073393 249.413141,151.690703 C245.458554,152.308014 238.175286,152.53249 230.493714,152.53249 C230.692866,144.114625 231.091169,132.189315 231.091169,120.292066 L231.091169,85.3859844 C231.091169,72.6469483 230.692866,66.5019066 230.266112,62.1807357 C234.846604,60.7496986 247.336271,59.7114953 251.51846,59.7114953 C254.420388,59.7114953 255.245445,60.7496986 255.245445,72.6469483 L255.245445,146.359389 Z" id="Shape"></path>
                <path d="M329.58599,94.4211598 C329.58599,81.6821237 322.302722,75.537082 313.995245,75.537082 C306.086071,75.537082 301.078824,79.4373596 296.071577,83.7304709 L296.071577,146.162972 C296.071577,150.063249 295.445671,150.876976 291.291932,151.494287 C284.435418,152.308014 278.603114,152.53249 271.319846,152.53249 C271.718149,142.038218 271.945751,129.523658 271.945751,115.157168 L271.945751,80.8683967 C271.945751,74.723355 271.092243,72.0576977 268.190316,70.4021842 L268.190316,69.1675639 C269.442128,63.6117728 274.648527,58.476875 281.732643,58.476875 C290.893629,58.476875 293.596404,64.8463931 294.848216,72.0576977 C302.330636,65.6881796 312.743433,58.476875 323.15623,58.476875 C348.76147,58.476875 353.740266,77.7818461 353.740266,94.6175767 L353.740266,122.340413 C353.740266,133.227519 353.967868,144.114625 354.366172,150.876976 C349.785679,151.29787 342.075657,152.53249 333.540577,152.53249 C330.63865,152.53249 329.58599,151.29787 329.58599,148.828629 L329.58599,94.4211598 Z" id="Shape"></path>
                <polygon id="Shape" points="241.589318 0.449723582 214.07791 55.8112177 243.210983 42.7635265 273.510516 54.7168952"></polygon>
                <path d="M369.387913,37.1235567 C369.387913,25.0298902 368.961159,19.4740991 368.562855,15.3774047 C372.517442,13.5254743 385.405412,11.673544 389.587602,11.673544 C392.688681,11.673544 393.542189,12.7117474 393.542189,25.0298902 L393.542189,124.192343 C393.542189,134.237663 393.940492,145.349245 394.367246,151.29787 C389.985905,152.308014 374.992615,152.925324 372.28984,152.925324 C370.21297,152.925324 369.387913,152.308014 369.387913,150.259666 L369.387913,37.1235567 Z" id="Shape"></path>
                <path d="M444.781118,71.2159112 C436.44519,71.2159112 428.308414,78.8200495 427.483356,95.2348868 C436.44519,95.8521969 452.889444,95.6557801 457.669088,95.2348868 C459.347654,95.2348868 460.371864,92.9901227 460.371864,90.9417755 C460.599466,79.8301933 456.018973,71.2159112 444.98027,71.2159112 L444.781118,71.2159112 Z M478.067929,132.610209 C478.067929,140.831657 471.410567,148.407736 468.707792,149.838773 C465.805864,151.494287 456.844031,153.739051 449.560762,153.739051 C419.37503,153.739051 403.129928,137.127796 403.129928,107.356613 C403.129928,82.5239102 419.37503,58.476875 447.256291,58.476875 C473.089132,58.476875 482.648422,76.9681191 482.847574,93.1865396 C482.847574,95.8521969 482.250118,98.1250206 481.823364,99.5560577 C481.197458,102.839025 473.487436,105.308266 465.37911,107.160196 C460.172712,108.394816 438.721211,108.394816 427.085052,107.973923 C427.91011,128.092621 441.452437,136.706903 456.218125,136.706903 C465.179959,136.706903 473.715038,134.237663 477.669625,132.413792 L478.067929,132.610209 Z" id="Shape"></path>
                <path d="M511.127138,124.809654 C511.127138,133.003042 517.158595,137.745107 524.441863,137.745107 C530.046565,137.745107 532.976943,135.696759 535.87887,132.806626 C536.93153,131.796482 537.557435,130.337385 537.557435,126.661584 L537.557435,108.394816 C519.86137,111.060474 511.127138,117.401932 511.127138,124.613237 L511.127138,124.809654 Z M570.844247,137.52063 C570.844247,146.976699 565.637848,153.739051 554.001689,153.739051 C545.665761,153.739051 540.459363,149.025046 537.955739,142.038218 C532.550189,148.014902 522.763297,153.739051 513.204008,153.739051 C499.462529,153.739051 487.997072,143.693731 487.997072,128.709931 C487.997072,107.55303 515.480029,101.800822 529.648261,99.1351644 C533.602848,98.5178543 536.106472,97.9005442 537.955739,97.7041273 L537.955739,92.5692295 C537.955739,82.7203271 531.298377,75.9299157 520.885579,75.9299157 C512.3505,75.9299157 504.668928,80.0546697 499.462529,83.1412203 C492.805167,84.1513642 490.500695,76.1543921 490.927449,72.4505314 C500.486739,65.6881796 515.081725,58.476875 527.969696,58.476875 C545.864913,58.476875 561.057355,70.2057673 561.057355,92.5692295 C561.057355,101.183512 560.232297,117.626408 560.232297,130.954695 C560.232297,134.041246 562.735921,137.127796 568.369074,137.324213 C569.194131,137.324213 570.019189,137.127796 570.844247,137.127796 L570.844247,137.52063 Z" id="Shape"></path>
                <path d="M620.43306,10.4389237 C625.013553,10.4389237 630.845858,11.673544 634.572843,14.9565114 C636.45056,19.4740991 631.870067,29.9683712 626.066213,27.4991307 C624.586799,26.8818206 622.111626,26.2645105 620.632212,26.2645105 C608.768451,26.2645105 603.789655,38.1617601 604.614712,60.9461155 C607.51664,60.9461155 624.387647,60.9461155 629.394894,60.5532818 C628.143083,68.353837 625.838611,70.8230775 623.135836,72.8714247 C620.43306,74.9197719 613.149792,75.537082 603.789655,75.537082 C603.789655,93.1865396 604.614712,139.597037 604.614712,150.876976 C598.156502,151.91518 585.040929,152.53249 582.139002,152.53249 C580.033683,152.53249 579.436227,151.91518 579.436227,149.642356 C580.033683,127.671728 579.635379,101.183512 579.635379,75.537082 C571.498603,74.9197719 567.771618,73.0678415 567.771618,68.9711471 C570.275241,65.8845965 574.42898,63.8362493 579.635379,60.9461155 C579.635379,39.3963803 585.467683,28.3128577 594.002763,20.3158857 C602.537843,12.7117474 611.897981,10.4389237 620.233909,10.4389237 L620.43306,10.4389237 Z" id="Shape"></path>
            </g>
        </g>
    </g>
</svg>